<mxfile host="app.diagrams.net" modified="2024-04-22T17:39:40.929Z" agent="Mozilla/5.0 (Macintosh; Intel Mac OS X 10_15_7) AppleWebKit/537.36 (KHTML, like Gecko) Chrome/121.0.0.0 Safari/537.36" etag="pBNKmRTCE55BGUJ-TnRR" version="24.2.7" type="google">
  <diagram name="Страница — 1" id="44QgigZQ2HkV662hQsCf">
    <mxGraphModel dx="1041" dy="1773" grid="1" gridSize="10" guides="1" tooltips="1" connect="1" arrows="1" fold="1" page="1" pageScale="1" pageWidth="827" pageHeight="1169" math="0" shadow="0">
      <root>
        <mxCell id="0" />
        <mxCell id="1" parent="0" />
        <mxCell id="7He2-vKcRPK2TsKGbKcH-1" value="Салон красоты" style="swimlane;html=1;childLayout=stackLayout;resizeParent=1;resizeParentMax=0;horizontal=0;startSize=20;horizontalStack=0;whiteSpace=wrap;" parent="1" vertex="1">
          <mxGeometry x="170" y="190" width="4760" height="890" as="geometry" />
        </mxCell>
        <mxCell id="7He2-vKcRPK2TsKGbKcH-2" value="Администратор" style="swimlane;html=1;startSize=20;horizontal=0;" parent="7He2-vKcRPK2TsKGbKcH-1" vertex="1">
          <mxGeometry x="20" width="4740" height="700" as="geometry" />
        </mxCell>
        <mxCell id="7He2-vKcRPK2TsKGbKcH-8" style="edgeStyle=orthogonalEdgeStyle;rounded=0;orthogonalLoop=1;jettySize=auto;html=1;" parent="7He2-vKcRPK2TsKGbKcH-2" source="7He2-vKcRPK2TsKGbKcH-6" target="7He2-vKcRPK2TsKGbKcH-7" edge="1">
          <mxGeometry relative="1" as="geometry" />
        </mxCell>
        <mxCell id="7He2-vKcRPK2TsKGbKcH-127" style="edgeStyle=orthogonalEdgeStyle;rounded=0;orthogonalLoop=1;jettySize=auto;html=1;startArrow=block;startFill=0;endArrow=oval;endFill=0;dashed=1;dashPattern=12 12;" parent="7He2-vKcRPK2TsKGbKcH-2" source="7He2-vKcRPK2TsKGbKcH-6" edge="1">
          <mxGeometry relative="1" as="geometry">
            <mxPoint x="135" y="-90" as="targetPoint" />
          </mxGeometry>
        </mxCell>
        <mxCell id="7He2-vKcRPK2TsKGbKcH-6" value="Клиент обратился в салон" style="points=[[0.145,0.145,0],[0.5,0,0],[0.855,0.145,0],[1,0.5,0],[0.855,0.855,0],[0.5,1,0],[0.145,0.855,0],[0,0.5,0]];shape=mxgraph.bpmn.event;html=1;verticalLabelPosition=bottom;labelBackgroundColor=#ffffff;verticalAlign=top;align=center;perimeter=ellipsePerimeter;outlineConnect=0;aspect=fixed;outline=standard;symbol=message;" parent="7He2-vKcRPK2TsKGbKcH-2" vertex="1">
          <mxGeometry x="110" y="320" width="50" height="50" as="geometry" />
        </mxCell>
        <mxCell id="7He2-vKcRPK2TsKGbKcH-10" style="edgeStyle=orthogonalEdgeStyle;rounded=0;orthogonalLoop=1;jettySize=auto;html=1;entryX=0;entryY=0.5;entryDx=0;entryDy=0;entryPerimeter=0;" parent="7He2-vKcRPK2TsKGbKcH-2" source="7He2-vKcRPK2TsKGbKcH-7" target="7He2-vKcRPK2TsKGbKcH-13" edge="1">
          <mxGeometry relative="1" as="geometry">
            <mxPoint x="460.0000000000002" y="345" as="targetPoint" />
          </mxGeometry>
        </mxCell>
        <mxCell id="7He2-vKcRPK2TsKGbKcH-7" value="Идентифицировать клиента" style="points=[[0.25,0,0],[0.5,0,0],[0.75,0,0],[1,0.25,0],[1,0.5,0],[1,0.75,0],[0.75,1,0],[0.5,1,0],[0.25,1,0],[0,0.75,0],[0,0.5,0],[0,0.25,0]];shape=mxgraph.bpmn.task;whiteSpace=wrap;rectStyle=rounded;size=10;html=1;container=1;expand=0;collapsible=0;taskMarker=abstract;isLoopSub=1;" parent="7He2-vKcRPK2TsKGbKcH-2" vertex="1">
          <mxGeometry x="230" y="305" width="120" height="80" as="geometry" />
        </mxCell>
        <mxCell id="7He2-vKcRPK2TsKGbKcH-9" value="" style="points=[[0.145,0.145,0],[0.5,0,0],[0.855,0.145,0],[1,0.5,0],[0.855,0.855,0],[0.5,1,0],[0.145,0.855,0],[0,0.5,0]];shape=mxgraph.bpmn.event;html=1;verticalLabelPosition=bottom;labelBackgroundColor=#ffffff;verticalAlign=top;align=center;perimeter=ellipsePerimeter;outlineConnect=0;aspect=fixed;outline=boundInt;symbol=error;" parent="7He2-vKcRPK2TsKGbKcH-7" vertex="1">
          <mxGeometry x="90" y="45" width="50" height="50" as="geometry" />
        </mxCell>
        <mxCell id="7He2-vKcRPK2TsKGbKcH-11" value="Попрощаться&amp;nbsp;&lt;div&gt;с клиентом&lt;/div&gt;" style="points=[[0.145,0.145,0],[0.5,0,0],[0.855,0.145,0],[1,0.5,0],[0.855,0.855,0],[0.5,1,0],[0.145,0.855,0],[0,0.5,0]];shape=mxgraph.bpmn.event;html=1;verticalLabelPosition=bottom;labelBackgroundColor=#ffffff;verticalAlign=top;align=center;perimeter=ellipsePerimeter;outlineConnect=0;aspect=fixed;outline=end;symbol=terminate2;" parent="7He2-vKcRPK2TsKGbKcH-2" vertex="1">
          <mxGeometry x="320" y="460" width="50" height="50" as="geometry" />
        </mxCell>
        <mxCell id="7He2-vKcRPK2TsKGbKcH-12" style="edgeStyle=orthogonalEdgeStyle;rounded=0;orthogonalLoop=1;jettySize=auto;html=1;" parent="7He2-vKcRPK2TsKGbKcH-2" source="7He2-vKcRPK2TsKGbKcH-9" target="7He2-vKcRPK2TsKGbKcH-11" edge="1">
          <mxGeometry relative="1" as="geometry" />
        </mxCell>
        <mxCell id="7He2-vKcRPK2TsKGbKcH-16" style="edgeStyle=orthogonalEdgeStyle;rounded=0;orthogonalLoop=1;jettySize=auto;html=1;" parent="7He2-vKcRPK2TsKGbKcH-2" source="7He2-vKcRPK2TsKGbKcH-13" target="7He2-vKcRPK2TsKGbKcH-15" edge="1">
          <mxGeometry relative="1" as="geometry" />
        </mxCell>
        <mxCell id="7He2-vKcRPK2TsKGbKcH-13" value="Проверить наличие записи у клиента" style="points=[[0.25,0,0],[0.5,0,0],[0.75,0,0],[1,0.25,0],[1,0.5,0],[1,0.75,0],[0.75,1,0],[0.5,1,0],[0.25,1,0],[0,0.75,0],[0,0.5,0],[0,0.25,0]];shape=mxgraph.bpmn.task;whiteSpace=wrap;rectStyle=rounded;size=10;html=1;container=1;expand=0;collapsible=0;taskMarker=user;" parent="7He2-vKcRPK2TsKGbKcH-2" vertex="1">
          <mxGeometry x="480" y="305" width="120" height="80" as="geometry" />
        </mxCell>
        <mxCell id="7He2-vKcRPK2TsKGbKcH-23" value="Нет" style="edgeStyle=orthogonalEdgeStyle;rounded=0;orthogonalLoop=1;jettySize=auto;html=1;entryX=0;entryY=0.5;entryDx=0;entryDy=0;entryPerimeter=0;" parent="7He2-vKcRPK2TsKGbKcH-2" source="7He2-vKcRPK2TsKGbKcH-15" target="7He2-vKcRPK2TsKGbKcH-24" edge="1">
          <mxGeometry relative="1" as="geometry">
            <mxPoint x="860" y="345" as="targetPoint" />
          </mxGeometry>
        </mxCell>
        <mxCell id="7He2-vKcRPK2TsKGbKcH-15" value="Запись есть?" style="points=[[0.25,0.25,0],[0.5,0,0],[0.75,0.25,0],[1,0.5,0],[0.75,0.75,0],[0.5,1,0],[0.25,0.75,0],[0,0.5,0]];shape=mxgraph.bpmn.gateway2;html=1;verticalLabelPosition=bottom;labelBackgroundColor=#ffffff;verticalAlign=top;align=center;perimeter=rhombusPerimeter;outlineConnect=0;outline=none;symbol=none;gwType=exclusive;" parent="7He2-vKcRPK2TsKGbKcH-2" vertex="1">
          <mxGeometry x="660" y="320" width="50" height="50" as="geometry" />
        </mxCell>
        <mxCell id="7He2-vKcRPK2TsKGbKcH-17" value="Проводить к специалисту" style="points=[[0.25,0,0],[0.5,0,0],[0.75,0,0],[1,0.25,0],[1,0.5,0],[1,0.75,0],[0.75,1,0],[0.5,1,0],[0.25,1,0],[0,0.75,0],[0,0.5,0],[0,0.25,0]];shape=mxgraph.bpmn.task;whiteSpace=wrap;rectStyle=rounded;size=10;html=1;container=1;expand=0;collapsible=0;taskMarker=manual;" parent="7He2-vKcRPK2TsKGbKcH-2" vertex="1">
          <mxGeometry x="625" y="500" width="120" height="80" as="geometry" />
        </mxCell>
        <mxCell id="7He2-vKcRPK2TsKGbKcH-18" value="Да" style="edgeStyle=orthogonalEdgeStyle;rounded=0;orthogonalLoop=1;jettySize=auto;html=1;entryX=0.5;entryY=0;entryDx=0;entryDy=0;entryPerimeter=0;" parent="7He2-vKcRPK2TsKGbKcH-2" source="7He2-vKcRPK2TsKGbKcH-15" target="7He2-vKcRPK2TsKGbKcH-17" edge="1">
          <mxGeometry relative="1" as="geometry" />
        </mxCell>
        <mxCell id="7He2-vKcRPK2TsKGbKcH-140" style="edgeStyle=orthogonalEdgeStyle;rounded=0;orthogonalLoop=1;jettySize=auto;html=1;dashed=1;dashPattern=12 12;strokeColor=default;align=center;verticalAlign=middle;fontFamily=Helvetica;fontSize=11;fontColor=default;labelBackgroundColor=default;startArrow=oval;startFill=0;endArrow=block;endFill=0;" edge="1" parent="7He2-vKcRPK2TsKGbKcH-2" source="7He2-vKcRPK2TsKGbKcH-24">
          <mxGeometry relative="1" as="geometry">
            <mxPoint x="810" y="-90" as="targetPoint" />
            <Array as="points">
              <mxPoint x="810" y="330" />
            </Array>
          </mxGeometry>
        </mxCell>
        <mxCell id="7He2-vKcRPK2TsKGbKcH-24" value="Провести презентацию?" style="points=[[0.25,0.25,0],[0.5,0,0],[0.75,0.25,0],[1,0.5,0],[0.75,0.75,0],[0.5,1,0],[0.25,0.75,0],[0,0.5,0]];shape=mxgraph.bpmn.gateway2;html=1;verticalLabelPosition=bottom;labelBackgroundColor=#ffffff;verticalAlign=top;align=center;perimeter=rhombusPerimeter;outlineConnect=0;outline=catching;symbol=multiple;" parent="7He2-vKcRPK2TsKGbKcH-2" vertex="1">
          <mxGeometry x="830" y="320" width="50" height="50" as="geometry" />
        </mxCell>
        <mxCell id="7He2-vKcRPK2TsKGbKcH-30" style="edgeStyle=orthogonalEdgeStyle;rounded=0;orthogonalLoop=1;jettySize=auto;html=1;" parent="7He2-vKcRPK2TsKGbKcH-2" source="7He2-vKcRPK2TsKGbKcH-25" target="7He2-vKcRPK2TsKGbKcH-29" edge="1">
          <mxGeometry relative="1" as="geometry" />
        </mxCell>
        <mxCell id="7He2-vKcRPK2TsKGbKcH-128" style="edgeStyle=orthogonalEdgeStyle;rounded=0;orthogonalLoop=1;jettySize=auto;html=1;dashed=1;dashPattern=12 12;strokeColor=default;align=center;verticalAlign=middle;fontFamily=Helvetica;fontSize=11;fontColor=default;labelBackgroundColor=default;startArrow=block;startFill=0;endArrow=oval;endFill=0;" edge="1" parent="7He2-vKcRPK2TsKGbKcH-2" source="7He2-vKcRPK2TsKGbKcH-25">
          <mxGeometry relative="1" as="geometry">
            <mxPoint x="945" y="-90" as="targetPoint" />
          </mxGeometry>
        </mxCell>
        <mxCell id="7He2-vKcRPK2TsKGbKcH-25" value="Да, провести" style="points=[[0.145,0.145,0],[0.5,0,0],[0.855,0.145,0],[1,0.5,0],[0.855,0.855,0],[0.5,1,0],[0.145,0.855,0],[0,0.5,0]];shape=mxgraph.bpmn.event;html=1;verticalLabelPosition=bottom;labelBackgroundColor=#ffffff;verticalAlign=top;align=center;perimeter=ellipsePerimeter;outlineConnect=0;aspect=fixed;outline=throwing;symbol=message;" parent="7He2-vKcRPK2TsKGbKcH-2" vertex="1">
          <mxGeometry x="920" y="230" width="50" height="50" as="geometry" />
        </mxCell>
        <mxCell id="7He2-vKcRPK2TsKGbKcH-32" style="edgeStyle=orthogonalEdgeStyle;rounded=0;orthogonalLoop=1;jettySize=auto;html=1;" parent="7He2-vKcRPK2TsKGbKcH-2" source="7He2-vKcRPK2TsKGbKcH-26" target="7He2-vKcRPK2TsKGbKcH-31" edge="1">
          <mxGeometry relative="1" as="geometry" />
        </mxCell>
        <mxCell id="7He2-vKcRPK2TsKGbKcH-129" style="edgeStyle=orthogonalEdgeStyle;rounded=0;orthogonalLoop=1;jettySize=auto;html=1;dashed=1;dashPattern=12 12;strokeColor=default;align=center;verticalAlign=middle;fontFamily=Helvetica;fontSize=11;fontColor=default;labelBackgroundColor=default;startArrow=block;startFill=0;endArrow=oval;endFill=0;" edge="1" parent="7He2-vKcRPK2TsKGbKcH-2" source="7He2-vKcRPK2TsKGbKcH-26">
          <mxGeometry relative="1" as="geometry">
            <mxPoint x="1000" y="-90" as="targetPoint" />
            <Array as="points">
              <mxPoint x="915" y="390" />
              <mxPoint x="1001" y="390" />
              <mxPoint x="1001" y="-90" />
            </Array>
          </mxGeometry>
        </mxCell>
        <mxCell id="7He2-vKcRPK2TsKGbKcH-26" value="Нет, не надо" style="points=[[0.145,0.145,0],[0.5,0,0],[0.855,0.145,0],[1,0.5,0],[0.855,0.855,0],[0.5,1,0],[0.145,0.855,0],[0,0.5,0]];shape=mxgraph.bpmn.event;html=1;verticalLabelPosition=bottom;labelBackgroundColor=#ffffff;verticalAlign=top;align=center;perimeter=ellipsePerimeter;outlineConnect=0;aspect=fixed;outline=throwing;symbol=message;" parent="7He2-vKcRPK2TsKGbKcH-2" vertex="1">
          <mxGeometry x="890" y="420" width="50" height="50" as="geometry" />
        </mxCell>
        <mxCell id="7He2-vKcRPK2TsKGbKcH-27" style="edgeStyle=orthogonalEdgeStyle;rounded=0;orthogonalLoop=1;jettySize=auto;html=1;entryX=0;entryY=0.5;entryDx=0;entryDy=0;entryPerimeter=0;exitX=0.5;exitY=0;exitDx=0;exitDy=0;exitPerimeter=0;" parent="7He2-vKcRPK2TsKGbKcH-2" source="7He2-vKcRPK2TsKGbKcH-24" target="7He2-vKcRPK2TsKGbKcH-25" edge="1">
          <mxGeometry relative="1" as="geometry" />
        </mxCell>
        <mxCell id="7He2-vKcRPK2TsKGbKcH-28" style="edgeStyle=orthogonalEdgeStyle;rounded=0;orthogonalLoop=1;jettySize=auto;html=1;entryX=0;entryY=0.5;entryDx=0;entryDy=0;entryPerimeter=0;exitX=0.5;exitY=1;exitDx=0;exitDy=0;exitPerimeter=0;" parent="7He2-vKcRPK2TsKGbKcH-2" source="7He2-vKcRPK2TsKGbKcH-24" target="7He2-vKcRPK2TsKGbKcH-26" edge="1">
          <mxGeometry relative="1" as="geometry" />
        </mxCell>
        <mxCell id="7He2-vKcRPK2TsKGbKcH-33" style="edgeStyle=orthogonalEdgeStyle;rounded=0;orthogonalLoop=1;jettySize=auto;html=1;" parent="7He2-vKcRPK2TsKGbKcH-2" source="7He2-vKcRPK2TsKGbKcH-29" target="7He2-vKcRPK2TsKGbKcH-31" edge="1">
          <mxGeometry relative="1" as="geometry" />
        </mxCell>
        <mxCell id="7He2-vKcRPK2TsKGbKcH-29" value="Провести презентацию" style="points=[[0.25,0,0],[0.5,0,0],[0.75,0,0],[1,0.25,0],[1,0.5,0],[1,0.75,0],[0.75,1,0],[0.5,1,0],[0.25,1,0],[0,0.75,0],[0,0.5,0],[0,0.25,0]];shape=mxgraph.bpmn.task;whiteSpace=wrap;rectStyle=rounded;size=10;html=1;container=1;expand=0;collapsible=0;taskMarker=manual;" parent="7He2-vKcRPK2TsKGbKcH-2" vertex="1">
          <mxGeometry x="1040" y="215" width="120" height="80" as="geometry" />
        </mxCell>
        <mxCell id="7He2-vKcRPK2TsKGbKcH-38" style="edgeStyle=orthogonalEdgeStyle;rounded=0;orthogonalLoop=1;jettySize=auto;html=1;entryX=0;entryY=0.5;entryDx=0;entryDy=0;entryPerimeter=0;" parent="7He2-vKcRPK2TsKGbKcH-2" source="7He2-vKcRPK2TsKGbKcH-31" target="7He2-vKcRPK2TsKGbKcH-39" edge="1">
          <mxGeometry relative="1" as="geometry">
            <mxPoint x="1250" y="445" as="targetPoint" />
          </mxGeometry>
        </mxCell>
        <mxCell id="7He2-vKcRPK2TsKGbKcH-31" value="" style="points=[[0.25,0.25,0],[0.5,0,0],[0.75,0.25,0],[1,0.5,0],[0.75,0.75,0],[0.5,1,0],[0.25,0.75,0],[0,0.5,0]];shape=mxgraph.bpmn.gateway2;html=1;verticalLabelPosition=bottom;labelBackgroundColor=#ffffff;verticalAlign=top;align=center;perimeter=rhombusPerimeter;outlineConnect=0;outline=none;symbol=none;gwType=exclusive;" parent="7He2-vKcRPK2TsKGbKcH-2" vertex="1">
          <mxGeometry x="1075" y="420" width="50" height="50" as="geometry" />
        </mxCell>
        <mxCell id="7He2-vKcRPK2TsKGbKcH-45" style="edgeStyle=orthogonalEdgeStyle;rounded=0;orthogonalLoop=1;jettySize=auto;html=1;" parent="7He2-vKcRPK2TsKGbKcH-2" source="7He2-vKcRPK2TsKGbKcH-39" target="7He2-vKcRPK2TsKGbKcH-40" edge="1">
          <mxGeometry relative="1" as="geometry" />
        </mxCell>
        <mxCell id="7He2-vKcRPK2TsKGbKcH-141" style="edgeStyle=orthogonalEdgeStyle;rounded=0;orthogonalLoop=1;jettySize=auto;html=1;dashed=1;dashPattern=12 12;strokeColor=default;align=center;verticalAlign=middle;fontFamily=Helvetica;fontSize=11;fontColor=default;labelBackgroundColor=default;startArrow=oval;startFill=0;endArrow=block;endFill=0;" edge="1" parent="7He2-vKcRPK2TsKGbKcH-2" source="7He2-vKcRPK2TsKGbKcH-39">
          <mxGeometry relative="1" as="geometry">
            <mxPoint x="1160" y="-90" as="targetPoint" />
          </mxGeometry>
        </mxCell>
        <mxCell id="7He2-vKcRPK2TsKGbKcH-39" value="Выбор клиента?" style="points=[[0.25,0.25,0],[0.5,0,0],[0.75,0.25,0],[1,0.5,0],[0.75,0.75,0],[0.5,1,0],[0.25,0.75,0],[0,0.5,0]];shape=mxgraph.bpmn.gateway2;html=1;verticalLabelPosition=bottom;labelBackgroundColor=#ffffff;verticalAlign=top;align=center;perimeter=rhombusPerimeter;outlineConnect=0;outline=none;symbol=none;gwType=exclusive;" parent="7He2-vKcRPK2TsKGbKcH-2" vertex="1">
          <mxGeometry x="1270" y="420" width="50" height="50" as="geometry" />
        </mxCell>
        <mxCell id="7He2-vKcRPK2TsKGbKcH-131" style="edgeStyle=orthogonalEdgeStyle;rounded=0;orthogonalLoop=1;jettySize=auto;html=1;dashed=1;dashPattern=12 12;strokeColor=default;align=center;verticalAlign=middle;fontFamily=Helvetica;fontSize=11;fontColor=default;labelBackgroundColor=default;startArrow=block;startFill=0;endArrow=oval;endFill=0;" edge="1" parent="7He2-vKcRPK2TsKGbKcH-2" source="7He2-vKcRPK2TsKGbKcH-40">
          <mxGeometry relative="1" as="geometry">
            <mxPoint x="1230" y="-90" as="targetPoint" />
          </mxGeometry>
        </mxCell>
        <mxCell id="7He2-vKcRPK2TsKGbKcH-40" value="Клиент готов&lt;div&gt;записаться&lt;/div&gt;" style="points=[[0.145,0.145,0],[0.5,0,0],[0.855,0.145,0],[1,0.5,0],[0.855,0.855,0],[0.5,1,0],[0.145,0.855,0],[0,0.5,0]];shape=mxgraph.bpmn.event;html=1;verticalLabelPosition=bottom;labelBackgroundColor=#ffffff;verticalAlign=top;align=center;perimeter=ellipsePerimeter;outlineConnect=0;aspect=fixed;outline=catching;symbol=conditional;" parent="7He2-vKcRPK2TsKGbKcH-2" vertex="1">
          <mxGeometry x="1270" y="280" width="50" height="50" as="geometry" />
        </mxCell>
        <mxCell id="7He2-vKcRPK2TsKGbKcH-130" style="edgeStyle=orthogonalEdgeStyle;rounded=0;orthogonalLoop=1;jettySize=auto;html=1;dashed=1;dashPattern=12 12;strokeColor=default;align=center;verticalAlign=middle;fontFamily=Helvetica;fontSize=11;fontColor=default;labelBackgroundColor=default;startArrow=block;startFill=0;endArrow=oval;endFill=0;" edge="1" parent="7He2-vKcRPK2TsKGbKcH-2" source="7He2-vKcRPK2TsKGbKcH-41">
          <mxGeometry relative="1" as="geometry">
            <mxPoint x="1520" y="-90" as="targetPoint" />
          </mxGeometry>
        </mxCell>
        <mxCell id="7He2-vKcRPK2TsKGbKcH-41" value="Клиент хочет&lt;div&gt;отказаться от услуг&lt;/div&gt;" style="points=[[0.145,0.145,0],[0.5,0,0],[0.855,0.145,0],[1,0.5,0],[0.855,0.855,0],[0.5,1,0],[0.145,0.855,0],[0,0.5,0]];shape=mxgraph.bpmn.event;html=1;verticalLabelPosition=bottom;labelBackgroundColor=#ffffff;verticalAlign=top;align=center;perimeter=ellipsePerimeter;outlineConnect=0;aspect=fixed;outline=catching;symbol=conditional;" parent="7He2-vKcRPK2TsKGbKcH-2" vertex="1">
          <mxGeometry x="1420" y="421" width="50" height="50" as="geometry" />
        </mxCell>
        <mxCell id="7He2-vKcRPK2TsKGbKcH-132" style="edgeStyle=orthogonalEdgeStyle;rounded=0;orthogonalLoop=1;jettySize=auto;html=1;dashed=1;dashPattern=12 12;strokeColor=default;align=center;verticalAlign=middle;fontFamily=Helvetica;fontSize=11;fontColor=default;labelBackgroundColor=default;startArrow=block;startFill=0;endArrow=oval;endFill=0;" edge="1" parent="7He2-vKcRPK2TsKGbKcH-2" source="7He2-vKcRPK2TsKGbKcH-42">
          <mxGeometry relative="1" as="geometry">
            <mxPoint x="1210" y="-90" as="targetPoint" />
          </mxGeometry>
        </mxCell>
        <mxCell id="7He2-vKcRPK2TsKGbKcH-42" value="Клиент хочет доп.консультацию" style="points=[[0.145,0.145,0],[0.5,0,0],[0.855,0.145,0],[1,0.5,0],[0.855,0.855,0],[0.5,1,0],[0.145,0.855,0],[0,0.5,0]];shape=mxgraph.bpmn.event;html=1;verticalLabelPosition=bottom;labelBackgroundColor=#ffffff;verticalAlign=top;align=center;perimeter=ellipsePerimeter;outlineConnect=0;aspect=fixed;outline=catching;symbol=conditional;" parent="7He2-vKcRPK2TsKGbKcH-2" vertex="1">
          <mxGeometry x="1271" y="560" width="50" height="50" as="geometry" />
        </mxCell>
        <mxCell id="7He2-vKcRPK2TsKGbKcH-43" style="edgeStyle=orthogonalEdgeStyle;rounded=0;orthogonalLoop=1;jettySize=auto;html=1;entryX=0.5;entryY=0;entryDx=0;entryDy=0;entryPerimeter=0;" parent="7He2-vKcRPK2TsKGbKcH-2" source="7He2-vKcRPK2TsKGbKcH-39" target="7He2-vKcRPK2TsKGbKcH-42" edge="1">
          <mxGeometry relative="1" as="geometry" />
        </mxCell>
        <mxCell id="7He2-vKcRPK2TsKGbKcH-44" style="edgeStyle=orthogonalEdgeStyle;rounded=0;orthogonalLoop=1;jettySize=auto;html=1;entryX=0;entryY=0.5;entryDx=0;entryDy=0;entryPerimeter=0;" parent="7He2-vKcRPK2TsKGbKcH-2" source="7He2-vKcRPK2TsKGbKcH-39" target="7He2-vKcRPK2TsKGbKcH-41" edge="1">
          <mxGeometry relative="1" as="geometry" />
        </mxCell>
        <mxCell id="7He2-vKcRPK2TsKGbKcH-49" value="Завершить&amp;nbsp;&lt;div&gt;обслуживание&lt;/div&gt;" style="points=[[0.145,0.145,0],[0.5,0,0],[0.855,0.145,0],[1,0.5,0],[0.855,0.855,0],[0.5,1,0],[0.145,0.855,0],[0,0.5,0]];shape=mxgraph.bpmn.event;html=1;verticalLabelPosition=bottom;labelBackgroundColor=#ffffff;verticalAlign=top;align=center;perimeter=ellipsePerimeter;outlineConnect=0;aspect=fixed;outline=end;symbol=terminate2;" parent="7He2-vKcRPK2TsKGbKcH-2" vertex="1">
          <mxGeometry x="1550" y="420" width="50" height="50" as="geometry" />
        </mxCell>
        <mxCell id="7He2-vKcRPK2TsKGbKcH-50" style="edgeStyle=orthogonalEdgeStyle;rounded=0;orthogonalLoop=1;jettySize=auto;html=1;entryX=0;entryY=0.5;entryDx=0;entryDy=0;entryPerimeter=0;" parent="7He2-vKcRPK2TsKGbKcH-2" source="7He2-vKcRPK2TsKGbKcH-41" target="7He2-vKcRPK2TsKGbKcH-49" edge="1">
          <mxGeometry relative="1" as="geometry" />
        </mxCell>
        <mxCell id="7He2-vKcRPK2TsKGbKcH-54" style="edgeStyle=orthogonalEdgeStyle;rounded=0;orthogonalLoop=1;jettySize=auto;html=1;" parent="7He2-vKcRPK2TsKGbKcH-2" source="7He2-vKcRPK2TsKGbKcH-51" target="7He2-vKcRPK2TsKGbKcH-53" edge="1">
          <mxGeometry relative="1" as="geometry" />
        </mxCell>
        <mxCell id="7He2-vKcRPK2TsKGbKcH-51" value="Записать клиента на услугу" style="points=[[0.25,0,0],[0.5,0,0],[0.75,0,0],[1,0.25,0],[1,0.5,0],[1,0.75,0],[0.75,1,0],[0.5,1,0],[0.25,1,0],[0,0.75,0],[0,0.5,0],[0,0.25,0]];shape=mxgraph.bpmn.task;whiteSpace=wrap;rectStyle=rounded;size=10;html=1;container=1;expand=0;collapsible=0;taskMarker=user;" parent="7He2-vKcRPK2TsKGbKcH-2" vertex="1">
          <mxGeometry x="1370" y="120" width="120" height="80" as="geometry" />
        </mxCell>
        <mxCell id="7He2-vKcRPK2TsKGbKcH-52" style="edgeStyle=orthogonalEdgeStyle;rounded=0;orthogonalLoop=1;jettySize=auto;html=1;exitX=0.5;exitY=0;exitDx=0;exitDy=0;exitPerimeter=0;entryX=0.5;entryY=1;entryDx=0;entryDy=0;entryPerimeter=0;" parent="7He2-vKcRPK2TsKGbKcH-2" source="7He2-vKcRPK2TsKGbKcH-40" target="7He2-vKcRPK2TsKGbKcH-94" edge="1">
          <mxGeometry relative="1" as="geometry">
            <mxPoint x="1295" y="120" as="targetPoint" />
          </mxGeometry>
        </mxCell>
        <mxCell id="7He2-vKcRPK2TsKGbKcH-53" value="За 1 день до записи" style="points=[[0.145,0.145,0],[0.5,0,0],[0.855,0.145,0],[1,0.5,0],[0.855,0.855,0],[0.5,1,0],[0.145,0.855,0],[0,0.5,0]];shape=mxgraph.bpmn.event;html=1;verticalLabelPosition=bottom;labelBackgroundColor=#ffffff;verticalAlign=top;align=center;perimeter=ellipsePerimeter;outlineConnect=0;aspect=fixed;outline=catching;symbol=timer;" parent="7He2-vKcRPK2TsKGbKcH-2" vertex="1">
          <mxGeometry x="1570" y="135" width="50" height="50" as="geometry" />
        </mxCell>
        <mxCell id="7He2-vKcRPK2TsKGbKcH-65" style="edgeStyle=orthogonalEdgeStyle;rounded=0;orthogonalLoop=1;jettySize=auto;html=1;exitX=1;exitY=0.5;exitDx=0;exitDy=0;exitPerimeter=0;entryX=0;entryY=0.5;entryDx=0;entryDy=0;entryPerimeter=0;" parent="7He2-vKcRPK2TsKGbKcH-2" source="7He2-vKcRPK2TsKGbKcH-56" target="7He2-vKcRPK2TsKGbKcH-66" edge="1">
          <mxGeometry relative="1" as="geometry">
            <mxPoint x="2390" y="164.47" as="targetPoint" />
            <mxPoint x="1870" y="164.47000000000023" as="sourcePoint" />
          </mxGeometry>
        </mxCell>
        <mxCell id="7He2-vKcRPK2TsKGbKcH-133" style="edgeStyle=orthogonalEdgeStyle;rounded=0;orthogonalLoop=1;jettySize=auto;html=1;dashed=1;dashPattern=12 12;strokeColor=default;align=center;verticalAlign=middle;fontFamily=Helvetica;fontSize=11;fontColor=default;labelBackgroundColor=default;startArrow=block;startFill=0;endArrow=oval;endFill=0;exitX=0.75;exitY=0;exitDx=0;exitDy=0;exitPerimeter=0;" edge="1" parent="7He2-vKcRPK2TsKGbKcH-2" source="7He2-vKcRPK2TsKGbKcH-56">
          <mxGeometry relative="1" as="geometry">
            <mxPoint x="1800" y="30" as="targetPoint" />
          </mxGeometry>
        </mxCell>
        <mxCell id="7He2-vKcRPK2TsKGbKcH-142" style="edgeStyle=orthogonalEdgeStyle;rounded=0;orthogonalLoop=1;jettySize=auto;html=1;dashed=1;dashPattern=12 12;strokeColor=default;align=center;verticalAlign=middle;fontFamily=Helvetica;fontSize=11;fontColor=default;labelBackgroundColor=default;startArrow=oval;startFill=0;endArrow=block;endFill=0;exitX=0.25;exitY=0;exitDx=0;exitDy=0;exitPerimeter=0;" edge="1" parent="7He2-vKcRPK2TsKGbKcH-2" source="7He2-vKcRPK2TsKGbKcH-56">
          <mxGeometry relative="1" as="geometry">
            <mxPoint x="1740" y="30" as="targetPoint" />
          </mxGeometry>
        </mxCell>
        <mxCell id="7He2-vKcRPK2TsKGbKcH-56" value="Позвонить клиенту (до 3х раз)" style="points=[[0.25,0,0],[0.5,0,0],[0.75,0,0],[1,0.25,0],[1,0.5,0],[1,0.75,0],[0.75,1,0],[0.5,1,0],[0.25,1,0],[0,0.75,0],[0,0.5,0],[0,0.25,0]];shape=mxgraph.bpmn.task;whiteSpace=wrap;rectStyle=rounded;size=10;html=1;container=1;expand=0;collapsible=0;taskMarker=abstract;isLoopSub=1;isLoopMultiSeq=1;" parent="7He2-vKcRPK2TsKGbKcH-2" vertex="1">
          <mxGeometry x="1710" y="120" width="120" height="80" as="geometry" />
        </mxCell>
        <mxCell id="7He2-vKcRPK2TsKGbKcH-58" value="" style="points=[[0.145,0.145,0],[0.5,0,0],[0.855,0.145,0],[1,0.5,0],[0.855,0.855,0],[0.5,1,0],[0.145,0.855,0],[0,0.5,0]];shape=mxgraph.bpmn.event;html=1;verticalLabelPosition=bottom;labelBackgroundColor=#ffffff;verticalAlign=top;align=center;perimeter=ellipsePerimeter;outlineConnect=0;aspect=fixed;outline=boundInt;symbol=error;" parent="7He2-vKcRPK2TsKGbKcH-56" vertex="1">
          <mxGeometry x="90" y="46" width="50" height="50" as="geometry" />
        </mxCell>
        <mxCell id="7He2-vKcRPK2TsKGbKcH-57" style="edgeStyle=orthogonalEdgeStyle;rounded=0;orthogonalLoop=1;jettySize=auto;html=1;entryX=0;entryY=0.5;entryDx=0;entryDy=0;entryPerimeter=0;" parent="7He2-vKcRPK2TsKGbKcH-2" source="7He2-vKcRPK2TsKGbKcH-53" target="7He2-vKcRPK2TsKGbKcH-56" edge="1">
          <mxGeometry relative="1" as="geometry" />
        </mxCell>
        <mxCell id="7He2-vKcRPK2TsKGbKcH-59" value="Отменить запись" style="points=[[0.25,0,0],[0.5,0,0],[0.75,0,0],[1,0.25,0],[1,0.5,0],[1,0.75,0],[0.75,1,0],[0.5,1,0],[0.25,1,0],[0,0.75,0],[0,0.5,0],[0,0.25,0]];shape=mxgraph.bpmn.task;whiteSpace=wrap;rectStyle=rounded;size=10;html=1;container=1;expand=0;collapsible=0;taskMarker=user;" parent="7He2-vKcRPK2TsKGbKcH-2" vertex="1">
          <mxGeometry x="1880" y="305" width="120" height="80" as="geometry" />
        </mxCell>
        <mxCell id="7He2-vKcRPK2TsKGbKcH-60" style="edgeStyle=orthogonalEdgeStyle;rounded=0;orthogonalLoop=1;jettySize=auto;html=1;" parent="7He2-vKcRPK2TsKGbKcH-2" source="7He2-vKcRPK2TsKGbKcH-58" target="7He2-vKcRPK2TsKGbKcH-92" edge="1">
          <mxGeometry relative="1" as="geometry">
            <mxPoint x="1825" y="250" as="targetPoint" />
          </mxGeometry>
        </mxCell>
        <mxCell id="7He2-vKcRPK2TsKGbKcH-80" style="edgeStyle=orthogonalEdgeStyle;rounded=0;orthogonalLoop=1;jettySize=auto;html=1;" parent="7He2-vKcRPK2TsKGbKcH-2" source="7He2-vKcRPK2TsKGbKcH-61" target="7He2-vKcRPK2TsKGbKcH-63" edge="1">
          <mxGeometry relative="1" as="geometry" />
        </mxCell>
        <mxCell id="7He2-vKcRPK2TsKGbKcH-61" value="Отправить уведомление специалисту" style="points=[[0.25,0,0],[0.5,0,0],[0.75,0,0],[1,0.25,0],[1,0.5,0],[1,0.75,0],[0.75,1,0],[0.5,1,0],[0.25,1,0],[0,0.75,0],[0,0.5,0],[0,0.25,0]];shape=mxgraph.bpmn.task;whiteSpace=wrap;rectStyle=rounded;size=10;html=1;container=1;expand=0;collapsible=0;taskMarker=service;" parent="7He2-vKcRPK2TsKGbKcH-2" vertex="1">
          <mxGeometry x="2120" y="240" width="120" height="80" as="geometry" />
        </mxCell>
        <mxCell id="7He2-vKcRPK2TsKGbKcH-63" value="Завершить&amp;nbsp;&lt;div&gt;обслуживание&lt;/div&gt;" style="points=[[0.145,0.145,0],[0.5,0,0],[0.855,0.145,0],[1,0.5,0],[0.855,0.855,0],[0.5,1,0],[0.145,0.855,0],[0,0.5,0]];shape=mxgraph.bpmn.event;html=1;verticalLabelPosition=bottom;labelBackgroundColor=#ffffff;verticalAlign=top;align=center;perimeter=ellipsePerimeter;outlineConnect=0;aspect=fixed;outline=end;symbol=terminate2;" parent="7He2-vKcRPK2TsKGbKcH-2" vertex="1">
          <mxGeometry x="2291" y="325" width="50" height="50" as="geometry" />
        </mxCell>
        <mxCell id="7He2-vKcRPK2TsKGbKcH-67" value="Да" style="edgeStyle=orthogonalEdgeStyle;rounded=0;orthogonalLoop=1;jettySize=auto;html=1;entryX=0;entryY=0.5;entryDx=0;entryDy=0;entryPerimeter=0;" parent="7He2-vKcRPK2TsKGbKcH-2" source="7He2-vKcRPK2TsKGbKcH-66" target="7He2-vKcRPK2TsKGbKcH-68" edge="1">
          <mxGeometry relative="1" as="geometry">
            <mxPoint x="2610" y="160" as="targetPoint" />
          </mxGeometry>
        </mxCell>
        <mxCell id="7He2-vKcRPK2TsKGbKcH-66" value="Клиент подтвердил&lt;div&gt;запись?&lt;/div&gt;" style="points=[[0.25,0.25,0],[0.5,0,0],[0.75,0.25,0],[1,0.5,0],[0.75,0.75,0],[0.5,1,0],[0.25,0.75,0],[0,0.5,0]];shape=mxgraph.bpmn.gateway2;html=1;verticalLabelPosition=bottom;labelBackgroundColor=#ffffff;verticalAlign=top;align=center;perimeter=rhombusPerimeter;outlineConnect=0;outline=none;symbol=none;gwType=exclusive;" parent="7He2-vKcRPK2TsKGbKcH-2" vertex="1">
          <mxGeometry x="2435" y="135" width="50" height="50" as="geometry" />
        </mxCell>
        <mxCell id="7He2-vKcRPK2TsKGbKcH-70" style="edgeStyle=orthogonalEdgeStyle;rounded=0;orthogonalLoop=1;jettySize=auto;html=1;" parent="7He2-vKcRPK2TsKGbKcH-2" source="7He2-vKcRPK2TsKGbKcH-68" target="7He2-vKcRPK2TsKGbKcH-69" edge="1">
          <mxGeometry relative="1" as="geometry" />
        </mxCell>
        <mxCell id="7He2-vKcRPK2TsKGbKcH-68" value="Клиент подтвердил запись" style="points=[[0.25,0,0],[0.5,0,0],[0.75,0,0],[1,0.25,0],[1,0.5,0],[1,0.75,0],[0.75,1,0],[0.5,1,0],[0.25,1,0],[0,0.75,0],[0,0.5,0],[0,0.25,0]];shape=mxgraph.bpmn.task;whiteSpace=wrap;rectStyle=rounded;size=10;html=1;container=1;expand=0;collapsible=0;taskMarker=user;" parent="7He2-vKcRPK2TsKGbKcH-2" vertex="1">
          <mxGeometry x="2610" y="120" width="120" height="80" as="geometry" />
        </mxCell>
        <mxCell id="7He2-vKcRPK2TsKGbKcH-69" value="Отправить уведомление специалисту" style="points=[[0.25,0,0],[0.5,0,0],[0.75,0,0],[1,0.25,0],[1,0.5,0],[1,0.75,0],[0.75,1,0],[0.5,1,0],[0.25,1,0],[0,0.75,0],[0,0.5,0],[0,0.25,0]];shape=mxgraph.bpmn.task;whiteSpace=wrap;rectStyle=rounded;size=10;html=1;container=1;expand=0;collapsible=0;taskMarker=service;" parent="7He2-vKcRPK2TsKGbKcH-2" vertex="1">
          <mxGeometry x="2810" y="120" width="120" height="80" as="geometry" />
        </mxCell>
        <mxCell id="7He2-vKcRPK2TsKGbKcH-72" value="Завершить&amp;nbsp;&lt;div&gt;обслуживание&lt;/div&gt;" style="points=[[0.145,0.145,0],[0.5,0,0],[0.855,0.145,0],[1,0.5,0],[0.855,0.855,0],[0.5,1,0],[0.145,0.855,0],[0,0.5,0]];shape=mxgraph.bpmn.event;html=1;verticalLabelPosition=bottom;labelBackgroundColor=#ffffff;verticalAlign=top;align=center;perimeter=ellipsePerimeter;outlineConnect=0;aspect=fixed;outline=end;symbol=terminate2;" parent="7He2-vKcRPK2TsKGbKcH-2" vertex="1">
          <mxGeometry x="3040" y="135" width="50" height="50" as="geometry" />
        </mxCell>
        <mxCell id="7He2-vKcRPK2TsKGbKcH-73" style="edgeStyle=orthogonalEdgeStyle;rounded=0;orthogonalLoop=1;jettySize=auto;html=1;entryX=0;entryY=0.5;entryDx=0;entryDy=0;entryPerimeter=0;" parent="7He2-vKcRPK2TsKGbKcH-2" source="7He2-vKcRPK2TsKGbKcH-69" target="7He2-vKcRPK2TsKGbKcH-72" edge="1">
          <mxGeometry relative="1" as="geometry" />
        </mxCell>
        <mxCell id="7He2-vKcRPK2TsKGbKcH-144" style="edgeStyle=orthogonalEdgeStyle;rounded=0;orthogonalLoop=1;jettySize=auto;html=1;dashed=1;dashPattern=12 12;strokeColor=default;align=center;verticalAlign=middle;fontFamily=Helvetica;fontSize=11;fontColor=default;labelBackgroundColor=default;startArrow=oval;startFill=0;endArrow=block;endFill=0;" edge="1" parent="7He2-vKcRPK2TsKGbKcH-2" source="7He2-vKcRPK2TsKGbKcH-74">
          <mxGeometry relative="1" as="geometry">
            <mxPoint x="2260" as="targetPoint" />
          </mxGeometry>
        </mxCell>
        <mxCell id="7He2-vKcRPK2TsKGbKcH-74" value="Отправить уведомление клиенту" style="points=[[0.25,0,0],[0.5,0,0],[0.75,0,0],[1,0.25,0],[1,0.5,0],[1,0.75,0],[0.75,1,0],[0.5,1,0],[0.25,1,0],[0,0.75,0],[0,0.5,0],[0,0.25,0]];shape=mxgraph.bpmn.task;whiteSpace=wrap;rectStyle=rounded;size=10;html=1;container=1;expand=0;collapsible=0;taskMarker=service;" parent="7He2-vKcRPK2TsKGbKcH-2" vertex="1">
          <mxGeometry x="2120" y="395" width="120" height="80" as="geometry" />
        </mxCell>
        <mxCell id="7He2-vKcRPK2TsKGbKcH-76" value="" style="points=[[0.25,0.25,0],[0.5,0,0],[0.75,0.25,0],[1,0.5,0],[0.75,0.75,0],[0.5,1,0],[0.25,0.75,0],[0,0.5,0]];shape=mxgraph.bpmn.gateway2;html=1;verticalLabelPosition=bottom;labelBackgroundColor=#ffffff;verticalAlign=top;align=center;perimeter=rhombusPerimeter;outlineConnect=0;outline=none;symbol=none;gwType=parallel;" parent="7He2-vKcRPK2TsKGbKcH-2" vertex="1">
          <mxGeometry x="2040" y="320" width="50" height="50" as="geometry" />
        </mxCell>
        <mxCell id="7He2-vKcRPK2TsKGbKcH-77" style="edgeStyle=orthogonalEdgeStyle;rounded=0;orthogonalLoop=1;jettySize=auto;html=1;entryX=0;entryY=0.5;entryDx=0;entryDy=0;entryPerimeter=0;" parent="7He2-vKcRPK2TsKGbKcH-2" source="7He2-vKcRPK2TsKGbKcH-59" target="7He2-vKcRPK2TsKGbKcH-76" edge="1">
          <mxGeometry relative="1" as="geometry" />
        </mxCell>
        <mxCell id="7He2-vKcRPK2TsKGbKcH-78" style="edgeStyle=orthogonalEdgeStyle;rounded=0;orthogonalLoop=1;jettySize=auto;html=1;entryX=0;entryY=0.5;entryDx=0;entryDy=0;entryPerimeter=0;exitX=0.5;exitY=0;exitDx=0;exitDy=0;exitPerimeter=0;" parent="7He2-vKcRPK2TsKGbKcH-2" source="7He2-vKcRPK2TsKGbKcH-76" target="7He2-vKcRPK2TsKGbKcH-61" edge="1">
          <mxGeometry relative="1" as="geometry" />
        </mxCell>
        <mxCell id="7He2-vKcRPK2TsKGbKcH-79" style="edgeStyle=orthogonalEdgeStyle;rounded=0;orthogonalLoop=1;jettySize=auto;html=1;entryX=0;entryY=0.5;entryDx=0;entryDy=0;entryPerimeter=0;exitX=0.5;exitY=1;exitDx=0;exitDy=0;exitPerimeter=0;" parent="7He2-vKcRPK2TsKGbKcH-2" source="7He2-vKcRPK2TsKGbKcH-76" target="7He2-vKcRPK2TsKGbKcH-74" edge="1">
          <mxGeometry relative="1" as="geometry" />
        </mxCell>
        <mxCell id="7He2-vKcRPK2TsKGbKcH-81" style="edgeStyle=orthogonalEdgeStyle;rounded=0;orthogonalLoop=1;jettySize=auto;html=1;entryX=0.5;entryY=1;entryDx=0;entryDy=0;entryPerimeter=0;" parent="7He2-vKcRPK2TsKGbKcH-2" source="7He2-vKcRPK2TsKGbKcH-74" target="7He2-vKcRPK2TsKGbKcH-63" edge="1">
          <mxGeometry relative="1" as="geometry" />
        </mxCell>
        <mxCell id="7He2-vKcRPK2TsKGbKcH-86" style="edgeStyle=orthogonalEdgeStyle;rounded=0;orthogonalLoop=1;jettySize=auto;html=1;" parent="7He2-vKcRPK2TsKGbKcH-2" source="7He2-vKcRPK2TsKGbKcH-83" target="7He2-vKcRPK2TsKGbKcH-85" edge="1">
          <mxGeometry relative="1" as="geometry" />
        </mxCell>
        <mxCell id="7He2-vKcRPK2TsKGbKcH-134" style="edgeStyle=orthogonalEdgeStyle;rounded=0;orthogonalLoop=1;jettySize=auto;html=1;dashed=1;dashPattern=12 12;strokeColor=default;align=center;verticalAlign=middle;fontFamily=Helvetica;fontSize=11;fontColor=default;labelBackgroundColor=default;startArrow=block;startFill=0;endArrow=oval;endFill=0;" edge="1" parent="7He2-vKcRPK2TsKGbKcH-2" source="7He2-vKcRPK2TsKGbKcH-83">
          <mxGeometry relative="1" as="geometry">
            <mxPoint x="2560" as="targetPoint" />
          </mxGeometry>
        </mxCell>
        <mxCell id="7He2-vKcRPK2TsKGbKcH-143" style="edgeStyle=orthogonalEdgeStyle;rounded=0;orthogonalLoop=1;jettySize=auto;html=1;dashed=1;dashPattern=12 12;strokeColor=default;align=center;verticalAlign=middle;fontFamily=Helvetica;fontSize=11;fontColor=default;labelBackgroundColor=default;startArrow=oval;startFill=0;endArrow=block;endFill=0;" edge="1" parent="7He2-vKcRPK2TsKGbKcH-2" source="7He2-vKcRPK2TsKGbKcH-83">
          <mxGeometry relative="1" as="geometry">
            <mxPoint x="2360" as="targetPoint" />
          </mxGeometry>
        </mxCell>
        <mxCell id="7He2-vKcRPK2TsKGbKcH-83" value="Выяснить причину отказа" style="points=[[0.25,0,0],[0.5,0,0],[0.75,0,0],[1,0.25,0],[1,0.5,0],[1,0.75,0],[0.75,1,0],[0.5,1,0],[0.25,1,0],[0,0.75,0],[0,0.5,0],[0,0.25,0]];shape=mxgraph.bpmn.task;whiteSpace=wrap;rectStyle=rounded;size=10;html=1;container=1;expand=0;collapsible=0;taskMarker=manual;" parent="7He2-vKcRPK2TsKGbKcH-2" vertex="1">
          <mxGeometry x="2400" y="325" width="120" height="80" as="geometry" />
        </mxCell>
        <mxCell id="7He2-vKcRPK2TsKGbKcH-84" value="Нет" style="edgeStyle=orthogonalEdgeStyle;rounded=0;orthogonalLoop=1;jettySize=auto;html=1;entryX=0.5;entryY=0;entryDx=0;entryDy=0;entryPerimeter=0;" parent="7He2-vKcRPK2TsKGbKcH-2" source="7He2-vKcRPK2TsKGbKcH-66" target="7He2-vKcRPK2TsKGbKcH-83" edge="1">
          <mxGeometry relative="1" as="geometry" />
        </mxCell>
        <mxCell id="7He2-vKcRPK2TsKGbKcH-87" value="Решительный отказ" style="edgeStyle=orthogonalEdgeStyle;rounded=0;orthogonalLoop=1;jettySize=auto;html=1;entryX=0.5;entryY=1;entryDx=0;entryDy=0;entryPerimeter=0;" parent="7He2-vKcRPK2TsKGbKcH-2" source="7He2-vKcRPK2TsKGbKcH-85" target="7He2-vKcRPK2TsKGbKcH-92" edge="1">
          <mxGeometry relative="1" as="geometry">
            <mxPoint x="1825" y="440" as="targetPoint" />
          </mxGeometry>
        </mxCell>
        <mxCell id="7He2-vKcRPK2TsKGbKcH-88" value="Перенос записи" style="edgeStyle=orthogonalEdgeStyle;rounded=0;orthogonalLoop=1;jettySize=auto;html=1;exitX=1;exitY=0.5;exitDx=0;exitDy=0;exitPerimeter=0;entryX=0;entryY=0.5;entryDx=0;entryDy=0;entryPerimeter=0;" parent="7He2-vKcRPK2TsKGbKcH-2" source="7He2-vKcRPK2TsKGbKcH-85" target="7He2-vKcRPK2TsKGbKcH-89" edge="1">
          <mxGeometry relative="1" as="geometry">
            <mxPoint x="2650" y="564.5" as="targetPoint" />
            <mxPoint x="2485" y="564.5" as="sourcePoint" />
          </mxGeometry>
        </mxCell>
        <mxCell id="7He2-vKcRPK2TsKGbKcH-85" value="Причина отказа&lt;div&gt;клиента?&lt;/div&gt;" style="points=[[0.25,0.25,0],[0.5,0,0],[0.75,0.25,0],[1,0.5,0],[0.75,0.75,0],[0.5,1,0],[0.25,0.75,0],[0,0.5,0]];shape=mxgraph.bpmn.gateway2;html=1;verticalLabelPosition=bottom;labelBackgroundColor=#ffffff;verticalAlign=top;align=center;perimeter=rhombusPerimeter;outlineConnect=0;outline=none;symbol=none;gwType=exclusive;" parent="7He2-vKcRPK2TsKGbKcH-2" vertex="1">
          <mxGeometry x="2435" y="540" width="50" height="50" as="geometry" />
        </mxCell>
        <mxCell id="7He2-vKcRPK2TsKGbKcH-91" value="Записаться на новое время" style="edgeStyle=orthogonalEdgeStyle;rounded=0;orthogonalLoop=1;jettySize=auto;html=1;exitX=1;exitY=0.5;exitDx=0;exitDy=0;exitPerimeter=0;entryX=0.5;entryY=0;entryDx=0;entryDy=0;entryPerimeter=0;" parent="7He2-vKcRPK2TsKGbKcH-2" source="7He2-vKcRPK2TsKGbKcH-89" target="7He2-vKcRPK2TsKGbKcH-94" edge="1">
          <mxGeometry relative="1" as="geometry">
            <mxPoint x="1310" y="70" as="targetPoint" />
            <Array as="points">
              <mxPoint x="3150" y="565" />
              <mxPoint x="3150" y="70" />
              <mxPoint x="1295" y="70" />
            </Array>
          </mxGeometry>
        </mxCell>
        <mxCell id="7He2-vKcRPK2TsKGbKcH-89" value="" style="points=[[0.25,0.25,0],[0.5,0,0],[0.75,0.25,0],[1,0.5,0],[0.75,0.75,0],[0.5,1,0],[0.25,0.75,0],[0,0.5,0]];shape=mxgraph.bpmn.gateway2;html=1;verticalLabelPosition=bottom;labelBackgroundColor=#ffffff;verticalAlign=top;align=center;perimeter=rhombusPerimeter;outlineConnect=0;outline=none;symbol=none;gwType=parallel;" parent="7He2-vKcRPK2TsKGbKcH-2" vertex="1">
          <mxGeometry x="2680" y="540" width="50" height="50" as="geometry" />
        </mxCell>
        <mxCell id="7He2-vKcRPK2TsKGbKcH-90" value="Отмена текущей записи" style="edgeStyle=orthogonalEdgeStyle;rounded=0;orthogonalLoop=1;jettySize=auto;html=1;entryX=0;entryY=0.5;entryDx=0;entryDy=0;entryPerimeter=0;" parent="7He2-vKcRPK2TsKGbKcH-2" source="7He2-vKcRPK2TsKGbKcH-89" target="7He2-vKcRPK2TsKGbKcH-92" edge="1">
          <mxGeometry relative="1" as="geometry">
            <mxPoint x="1745" y="330" as="targetPoint" />
            <Array as="points">
              <mxPoint x="2705" y="650" />
              <mxPoint x="1745" y="650" />
              <mxPoint x="1745" y="345" />
            </Array>
          </mxGeometry>
        </mxCell>
        <mxCell id="7He2-vKcRPK2TsKGbKcH-93" style="edgeStyle=orthogonalEdgeStyle;rounded=0;orthogonalLoop=1;jettySize=auto;html=1;" parent="7He2-vKcRPK2TsKGbKcH-2" source="7He2-vKcRPK2TsKGbKcH-92" target="7He2-vKcRPK2TsKGbKcH-59" edge="1">
          <mxGeometry relative="1" as="geometry" />
        </mxCell>
        <mxCell id="7He2-vKcRPK2TsKGbKcH-92" value="" style="points=[[0.25,0.25,0],[0.5,0,0],[0.75,0.25,0],[1,0.5,0],[0.75,0.75,0],[0.5,1,0],[0.25,0.75,0],[0,0.5,0]];shape=mxgraph.bpmn.gateway2;html=1;verticalLabelPosition=bottom;labelBackgroundColor=#ffffff;verticalAlign=top;align=center;perimeter=rhombusPerimeter;outlineConnect=0;outline=none;symbol=none;gwType=exclusive;" parent="7He2-vKcRPK2TsKGbKcH-2" vertex="1">
          <mxGeometry x="1800" y="320" width="50" height="50" as="geometry" />
        </mxCell>
        <mxCell id="7He2-vKcRPK2TsKGbKcH-94" value="" style="points=[[0.25,0.25,0],[0.5,0,0],[0.75,0.25,0],[1,0.5,0],[0.75,0.75,0],[0.5,1,0],[0.25,0.75,0],[0,0.5,0]];shape=mxgraph.bpmn.gateway2;html=1;verticalLabelPosition=bottom;labelBackgroundColor=#ffffff;verticalAlign=top;align=center;perimeter=rhombusPerimeter;outlineConnect=0;outline=none;symbol=none;gwType=exclusive;" parent="7He2-vKcRPK2TsKGbKcH-2" vertex="1">
          <mxGeometry x="1271" y="135" width="50" height="50" as="geometry" />
        </mxCell>
        <mxCell id="7He2-vKcRPK2TsKGbKcH-96" style="edgeStyle=orthogonalEdgeStyle;rounded=0;orthogonalLoop=1;jettySize=auto;html=1;entryX=0;entryY=0.5;entryDx=0;entryDy=0;entryPerimeter=0;" parent="7He2-vKcRPK2TsKGbKcH-2" source="7He2-vKcRPK2TsKGbKcH-94" target="7He2-vKcRPK2TsKGbKcH-51" edge="1">
          <mxGeometry relative="1" as="geometry" />
        </mxCell>
        <mxCell id="7He2-vKcRPK2TsKGbKcH-145" style="edgeStyle=orthogonalEdgeStyle;rounded=0;orthogonalLoop=1;jettySize=auto;html=1;dashed=1;dashPattern=12 12;strokeColor=default;align=center;verticalAlign=middle;fontFamily=Helvetica;fontSize=11;fontColor=default;labelBackgroundColor=default;startArrow=oval;startFill=0;endArrow=block;endFill=0;" edge="1" parent="7He2-vKcRPK2TsKGbKcH-2" source="7He2-vKcRPK2TsKGbKcH-97">
          <mxGeometry relative="1" as="geometry">
            <mxPoint x="3260" y="-90" as="targetPoint" />
          </mxGeometry>
        </mxCell>
        <mxCell id="7He2-vKcRPK2TsKGbKcH-97" value="Выяснить мнение клиента об услуге" style="points=[[0.25,0,0],[0.5,0,0],[0.75,0,0],[1,0.25,0],[1,0.5,0],[1,0.75,0],[0.75,1,0],[0.5,1,0],[0.25,1,0],[0,0.75,0],[0,0.5,0],[0,0.25,0]];shape=mxgraph.bpmn.task;whiteSpace=wrap;rectStyle=rounded;size=10;html=1;container=1;expand=0;collapsible=0;taskMarker=manual;" parent="7He2-vKcRPK2TsKGbKcH-2" vertex="1">
          <mxGeometry x="3310" y="445" width="120" height="80" as="geometry" />
        </mxCell>
        <mxCell id="7He2-vKcRPK2TsKGbKcH-135" style="edgeStyle=orthogonalEdgeStyle;rounded=0;orthogonalLoop=1;jettySize=auto;html=1;dashed=1;dashPattern=12 12;strokeColor=default;align=center;verticalAlign=middle;fontFamily=Helvetica;fontSize=11;fontColor=default;labelBackgroundColor=default;startArrow=block;startFill=0;endArrow=oval;endFill=0;" edge="1" parent="7He2-vKcRPK2TsKGbKcH-2" source="7He2-vKcRPK2TsKGbKcH-99">
          <mxGeometry relative="1" as="geometry">
            <mxPoint x="3480" y="-90" as="targetPoint" />
          </mxGeometry>
        </mxCell>
        <mxCell id="7He2-vKcRPK2TsKGbKcH-99" value="Все ок:)" style="points=[[0.145,0.145,0],[0.5,0,0],[0.855,0.145,0],[1,0.5,0],[0.855,0.855,0],[0.5,1,0],[0.145,0.855,0],[0,0.5,0]];shape=mxgraph.bpmn.event;html=1;verticalLabelPosition=bottom;labelBackgroundColor=#ffffff;verticalAlign=top;align=center;perimeter=ellipsePerimeter;outlineConnect=0;aspect=fixed;outline=throwing;symbol=message;" parent="7He2-vKcRPK2TsKGbKcH-2" vertex="1">
          <mxGeometry x="3410" y="405" width="50" height="50" as="geometry" />
        </mxCell>
        <mxCell id="7He2-vKcRPK2TsKGbKcH-136" style="edgeStyle=orthogonalEdgeStyle;rounded=0;orthogonalLoop=1;jettySize=auto;html=1;dashed=1;dashPattern=12 12;strokeColor=default;align=center;verticalAlign=middle;fontFamily=Helvetica;fontSize=11;fontColor=default;labelBackgroundColor=default;startArrow=block;startFill=0;endArrow=oval;endFill=0;" edge="1" parent="7He2-vKcRPK2TsKGbKcH-2" source="7He2-vKcRPK2TsKGbKcH-100">
          <mxGeometry relative="1" as="geometry">
            <mxPoint x="3500" y="-90" as="targetPoint" />
          </mxGeometry>
        </mxCell>
        <mxCell id="7He2-vKcRPK2TsKGbKcH-100" value="Не ок:(" style="points=[[0.145,0.145,0],[0.5,0,0],[0.855,0.145,0],[1,0.5,0],[0.855,0.855,0],[0.5,1,0],[0.145,0.855,0],[0,0.5,0]];shape=mxgraph.bpmn.event;html=1;verticalLabelPosition=bottom;labelBackgroundColor=#ffffff;verticalAlign=top;align=center;perimeter=ellipsePerimeter;outlineConnect=0;aspect=fixed;outline=throwing;symbol=message;" parent="7He2-vKcRPK2TsKGbKcH-2" vertex="1">
          <mxGeometry x="3410" y="510" width="50" height="50" as="geometry" />
        </mxCell>
        <mxCell id="7He2-vKcRPK2TsKGbKcH-147" style="edgeStyle=orthogonalEdgeStyle;rounded=0;orthogonalLoop=1;jettySize=auto;html=1;dashed=1;dashPattern=12 12;strokeColor=default;align=center;verticalAlign=middle;fontFamily=Helvetica;fontSize=11;fontColor=default;labelBackgroundColor=default;startArrow=oval;startFill=0;endArrow=block;endFill=0;" edge="1" parent="7He2-vKcRPK2TsKGbKcH-2" source="7He2-vKcRPK2TsKGbKcH-101">
          <mxGeometry relative="1" as="geometry">
            <mxPoint x="3690" y="-90" as="targetPoint" />
          </mxGeometry>
        </mxCell>
        <mxCell id="7He2-vKcRPK2TsKGbKcH-101" value="Отработать негативную обратную связь" style="points=[[0.25,0,0],[0.5,0,0],[0.75,0,0],[1,0.25,0],[1,0.5,0],[1,0.75,0],[0.75,1,0],[0.5,1,0],[0.25,1,0],[0,0.75,0],[0,0.5,0],[0,0.25,0]];shape=mxgraph.bpmn.task;whiteSpace=wrap;rectStyle=rounded;size=10;html=1;container=1;expand=0;collapsible=0;taskMarker=abstract;isLoopSub=1;" parent="7He2-vKcRPK2TsKGbKcH-2" vertex="1">
          <mxGeometry x="3630" y="495" width="120" height="80" as="geometry" />
        </mxCell>
        <mxCell id="7He2-vKcRPK2TsKGbKcH-102" style="edgeStyle=orthogonalEdgeStyle;rounded=0;orthogonalLoop=1;jettySize=auto;html=1;entryX=0;entryY=0.5;entryDx=0;entryDy=0;entryPerimeter=0;" parent="7He2-vKcRPK2TsKGbKcH-2" source="7He2-vKcRPK2TsKGbKcH-100" target="7He2-vKcRPK2TsKGbKcH-101" edge="1">
          <mxGeometry relative="1" as="geometry" />
        </mxCell>
        <mxCell id="7He2-vKcRPK2TsKGbKcH-139" style="edgeStyle=orthogonalEdgeStyle;rounded=0;orthogonalLoop=1;jettySize=auto;html=1;dashed=1;dashPattern=12 12;strokeColor=default;align=center;verticalAlign=middle;fontFamily=Helvetica;fontSize=11;fontColor=default;labelBackgroundColor=default;startArrow=block;startFill=0;endArrow=oval;endFill=0;" edge="1" parent="7He2-vKcRPK2TsKGbKcH-2" source="7He2-vKcRPK2TsKGbKcH-103">
          <mxGeometry relative="1" as="geometry">
            <mxPoint x="4470" y="-90" as="targetPoint" />
          </mxGeometry>
        </mxCell>
        <mxCell id="7He2-vKcRPK2TsKGbKcH-103" value="Принять оплату" style="points=[[0.25,0,0],[0.5,0,0],[0.75,0,0],[1,0.25,0],[1,0.5,0],[1,0.75,0],[0.75,1,0],[0.5,1,0],[0.25,1,0],[0,0.75,0],[0,0.5,0],[0,0.25,0]];shape=mxgraph.bpmn.task;whiteSpace=wrap;rectStyle=rounded;size=10;html=1;container=1;expand=0;collapsible=0;taskMarker=abstract;isLoopSub=1;" parent="7He2-vKcRPK2TsKGbKcH-2" vertex="1">
          <mxGeometry x="4410" y="425" width="120" height="80" as="geometry" />
        </mxCell>
        <mxCell id="7He2-vKcRPK2TsKGbKcH-104" style="edgeStyle=orthogonalEdgeStyle;rounded=0;orthogonalLoop=1;jettySize=auto;html=1;entryX=0.5;entryY=1;entryDx=0;entryDy=0;entryPerimeter=0;" parent="7He2-vKcRPK2TsKGbKcH-2" source="7He2-vKcRPK2TsKGbKcH-101" target="7He2-vKcRPK2TsKGbKcH-123" edge="1">
          <mxGeometry relative="1" as="geometry" />
        </mxCell>
        <mxCell id="7He2-vKcRPK2TsKGbKcH-105" value="Завершить обслуживание" style="points=[[0.145,0.145,0],[0.5,0,0],[0.855,0.145,0],[1,0.5,0],[0.855,0.855,0],[0.5,1,0],[0.145,0.855,0],[0,0.5,0]];shape=mxgraph.bpmn.event;html=1;verticalLabelPosition=bottom;labelBackgroundColor=#ffffff;verticalAlign=top;align=center;perimeter=ellipsePerimeter;outlineConnect=0;aspect=fixed;outline=end;symbol=terminate2;" parent="7He2-vKcRPK2TsKGbKcH-2" vertex="1">
          <mxGeometry x="4590" y="440" width="50" height="50" as="geometry" />
        </mxCell>
        <mxCell id="7He2-vKcRPK2TsKGbKcH-106" style="edgeStyle=orthogonalEdgeStyle;rounded=0;orthogonalLoop=1;jettySize=auto;html=1;entryX=0;entryY=0.5;entryDx=0;entryDy=0;entryPerimeter=0;" parent="7He2-vKcRPK2TsKGbKcH-2" source="7He2-vKcRPK2TsKGbKcH-103" target="7He2-vKcRPK2TsKGbKcH-105" edge="1">
          <mxGeometry relative="1" as="geometry" />
        </mxCell>
        <mxCell id="7He2-vKcRPK2TsKGbKcH-107" value="Предложить написать отзыв" style="points=[[0.25,0,0],[0.5,0,0],[0.75,0,0],[1,0.25,0],[1,0.5,0],[1,0.75,0],[0.75,1,0],[0.5,1,0],[0.25,1,0],[0,0.75,0],[0,0.5,0],[0,0.25,0]];shape=mxgraph.bpmn.task;whiteSpace=wrap;rectStyle=rounded;size=10;html=1;container=1;expand=0;collapsible=0;taskMarker=manual;" parent="7He2-vKcRPK2TsKGbKcH-2" vertex="1">
          <mxGeometry x="3510" y="245" width="120" height="80" as="geometry" />
        </mxCell>
        <mxCell id="7He2-vKcRPK2TsKGbKcH-108" style="edgeStyle=orthogonalEdgeStyle;rounded=0;orthogonalLoop=1;jettySize=auto;html=1;entryX=0;entryY=0.5;entryDx=0;entryDy=0;entryPerimeter=0;exitX=0.5;exitY=0;exitDx=0;exitDy=0;exitPerimeter=0;" parent="7He2-vKcRPK2TsKGbKcH-2" source="7He2-vKcRPK2TsKGbKcH-99" target="7He2-vKcRPK2TsKGbKcH-107" edge="1">
          <mxGeometry relative="1" as="geometry" />
        </mxCell>
        <mxCell id="7He2-vKcRPK2TsKGbKcH-113" style="edgeStyle=orthogonalEdgeStyle;rounded=0;orthogonalLoop=1;jettySize=auto;html=1;entryX=0;entryY=0.5;entryDx=0;entryDy=0;entryPerimeter=0;" parent="7He2-vKcRPK2TsKGbKcH-2" source="7He2-vKcRPK2TsKGbKcH-109" target="7He2-vKcRPK2TsKGbKcH-111" edge="1">
          <mxGeometry relative="1" as="geometry" />
        </mxCell>
        <mxCell id="7He2-vKcRPK2TsKGbKcH-109" value="Предложить скидку на следующий визит" style="points=[[0.25,0,0],[0.5,0,0],[0.75,0,0],[1,0.25,0],[1,0.5,0],[1,0.75,0],[0.75,1,0],[0.5,1,0],[0.25,1,0],[0,0.75,0],[0,0.5,0],[0,0.25,0]];shape=mxgraph.bpmn.task;whiteSpace=wrap;rectStyle=rounded;size=10;html=1;container=1;expand=0;collapsible=0;taskMarker=manual;" parent="7He2-vKcRPK2TsKGbKcH-2" vertex="1">
          <mxGeometry x="3710" y="245" width="120" height="80" as="geometry" />
        </mxCell>
        <mxCell id="7He2-vKcRPK2TsKGbKcH-110" style="edgeStyle=orthogonalEdgeStyle;rounded=0;orthogonalLoop=1;jettySize=auto;html=1;entryX=0;entryY=0.5;entryDx=0;entryDy=0;entryPerimeter=0;" parent="7He2-vKcRPK2TsKGbKcH-2" source="7He2-vKcRPK2TsKGbKcH-107" target="7He2-vKcRPK2TsKGbKcH-109" edge="1">
          <mxGeometry relative="1" as="geometry" />
        </mxCell>
        <mxCell id="7He2-vKcRPK2TsKGbKcH-146" style="edgeStyle=orthogonalEdgeStyle;rounded=0;orthogonalLoop=1;jettySize=auto;html=1;dashed=1;dashPattern=12 12;strokeColor=default;align=center;verticalAlign=middle;fontFamily=Helvetica;fontSize=11;fontColor=default;labelBackgroundColor=default;startArrow=oval;startFill=0;endArrow=block;endFill=0;" edge="1" parent="7He2-vKcRPK2TsKGbKcH-2" source="7He2-vKcRPK2TsKGbKcH-111">
          <mxGeometry relative="1" as="geometry">
            <mxPoint x="3890" y="-90" as="targetPoint" />
          </mxGeometry>
        </mxCell>
        <mxCell id="7He2-vKcRPK2TsKGbKcH-111" value="Продолжить обслуживание?" style="points=[[0.25,0.25,0],[0.5,0,0],[0.75,0.25,0],[1,0.5,0],[0.75,0.75,0],[0.5,1,0],[0.25,0.75,0],[0,0.5,0]];shape=mxgraph.bpmn.gateway2;html=1;verticalLabelPosition=bottom;labelBackgroundColor=#ffffff;verticalAlign=top;align=center;perimeter=rhombusPerimeter;outlineConnect=0;outline=catching;symbol=multiple;" parent="7He2-vKcRPK2TsKGbKcH-2" vertex="1">
          <mxGeometry x="3920" y="260" width="50" height="50" as="geometry" />
        </mxCell>
        <mxCell id="7He2-vKcRPK2TsKGbKcH-138" style="edgeStyle=orthogonalEdgeStyle;rounded=0;orthogonalLoop=1;jettySize=auto;html=1;dashed=1;dashPattern=12 12;strokeColor=default;align=center;verticalAlign=middle;fontFamily=Helvetica;fontSize=11;fontColor=default;labelBackgroundColor=default;startArrow=block;startFill=0;endArrow=oval;endFill=0;" edge="1" parent="7He2-vKcRPK2TsKGbKcH-2" source="7He2-vKcRPK2TsKGbKcH-114">
          <mxGeometry relative="1" as="geometry">
            <mxPoint x="4135" y="-90" as="targetPoint" />
          </mxGeometry>
        </mxCell>
        <mxCell id="7He2-vKcRPK2TsKGbKcH-114" value="Нет" style="points=[[0.145,0.145,0],[0.5,0,0],[0.855,0.145,0],[1,0.5,0],[0.855,0.855,0],[0.5,1,0],[0.145,0.855,0],[0,0.5,0]];shape=mxgraph.bpmn.event;html=1;verticalLabelPosition=bottom;labelBackgroundColor=#ffffff;verticalAlign=top;align=center;perimeter=ellipsePerimeter;outlineConnect=0;aspect=fixed;outline=throwing;symbol=message;" parent="7He2-vKcRPK2TsKGbKcH-2" vertex="1">
          <mxGeometry x="4110" y="260" width="50" height="50" as="geometry" />
        </mxCell>
        <mxCell id="7He2-vKcRPK2TsKGbKcH-115" style="edgeStyle=orthogonalEdgeStyle;rounded=0;orthogonalLoop=1;jettySize=auto;html=1;entryX=0;entryY=0.5;entryDx=0;entryDy=0;entryPerimeter=0;" parent="7He2-vKcRPK2TsKGbKcH-2" source="7He2-vKcRPK2TsKGbKcH-114" target="7He2-vKcRPK2TsKGbKcH-123" edge="1">
          <mxGeometry relative="1" as="geometry" />
        </mxCell>
        <mxCell id="7He2-vKcRPK2TsKGbKcH-116" style="edgeStyle=orthogonalEdgeStyle;rounded=0;orthogonalLoop=1;jettySize=auto;html=1;entryX=0;entryY=0.5;entryDx=0;entryDy=0;entryPerimeter=0;" parent="7He2-vKcRPK2TsKGbKcH-2" source="7He2-vKcRPK2TsKGbKcH-111" target="7He2-vKcRPK2TsKGbKcH-114" edge="1">
          <mxGeometry relative="1" as="geometry" />
        </mxCell>
        <mxCell id="7He2-vKcRPK2TsKGbKcH-120" style="edgeStyle=orthogonalEdgeStyle;rounded=0;orthogonalLoop=1;jettySize=auto;html=1;" parent="7He2-vKcRPK2TsKGbKcH-2" source="7He2-vKcRPK2TsKGbKcH-117" target="7He2-vKcRPK2TsKGbKcH-119" edge="1">
          <mxGeometry relative="1" as="geometry" />
        </mxCell>
        <mxCell id="7He2-vKcRPK2TsKGbKcH-137" style="edgeStyle=orthogonalEdgeStyle;rounded=0;orthogonalLoop=1;jettySize=auto;html=1;dashed=1;dashPattern=12 12;strokeColor=default;align=center;verticalAlign=middle;fontFamily=Helvetica;fontSize=11;fontColor=default;labelBackgroundColor=default;startArrow=block;startFill=0;endArrow=oval;endFill=0;exitX=0.5;exitY=0;exitDx=0;exitDy=0;exitPerimeter=0;" edge="1" parent="7He2-vKcRPK2TsKGbKcH-2" source="7He2-vKcRPK2TsKGbKcH-117">
          <mxGeometry relative="1" as="geometry">
            <mxPoint x="4035" y="-90" as="targetPoint" />
            <mxPoint x="4070" y="90" as="sourcePoint" />
          </mxGeometry>
        </mxCell>
        <mxCell id="7He2-vKcRPK2TsKGbKcH-117" value="Да" style="points=[[0.145,0.145,0],[0.5,0,0],[0.855,0.145,0],[1,0.5,0],[0.855,0.855,0],[0.5,1,0],[0.145,0.855,0],[0,0.5,0]];shape=mxgraph.bpmn.event;html=1;verticalLabelPosition=bottom;labelBackgroundColor=#ffffff;verticalAlign=top;align=center;perimeter=ellipsePerimeter;outlineConnect=0;aspect=fixed;outline=throwing;symbol=message;" parent="7He2-vKcRPK2TsKGbKcH-2" vertex="1">
          <mxGeometry x="4010" y="135" width="50" height="50" as="geometry" />
        </mxCell>
        <mxCell id="7He2-vKcRPK2TsKGbKcH-118" style="edgeStyle=orthogonalEdgeStyle;rounded=0;orthogonalLoop=1;jettySize=auto;html=1;entryX=0;entryY=0.5;entryDx=0;entryDy=0;entryPerimeter=0;exitX=0.5;exitY=0;exitDx=0;exitDy=0;exitPerimeter=0;" parent="7He2-vKcRPK2TsKGbKcH-2" source="7He2-vKcRPK2TsKGbKcH-111" target="7He2-vKcRPK2TsKGbKcH-117" edge="1">
          <mxGeometry relative="1" as="geometry" />
        </mxCell>
        <mxCell id="7He2-vKcRPK2TsKGbKcH-119" value="" style="points=[[0.25,0.25,0],[0.5,0,0],[0.75,0.25,0],[1,0.5,0],[0.75,0.75,0],[0.5,1,0],[0.25,0.75,0],[0,0.5,0]];shape=mxgraph.bpmn.gateway2;html=1;verticalLabelPosition=bottom;labelBackgroundColor=#ffffff;verticalAlign=top;align=center;perimeter=rhombusPerimeter;outlineConnect=0;outline=none;symbol=none;gwType=parallel;" parent="7He2-vKcRPK2TsKGbKcH-2" vertex="1">
          <mxGeometry x="4150" y="135" width="50" height="50" as="geometry" />
        </mxCell>
        <mxCell id="7He2-vKcRPK2TsKGbKcH-121" value="Оплатить текущую&lt;div&gt;услугу&lt;/div&gt;" style="edgeStyle=orthogonalEdgeStyle;rounded=0;orthogonalLoop=1;jettySize=auto;html=1;entryX=0.5;entryY=0;entryDx=0;entryDy=0;entryPerimeter=0;" parent="7He2-vKcRPK2TsKGbKcH-2" source="7He2-vKcRPK2TsKGbKcH-119" target="7He2-vKcRPK2TsKGbKcH-123" edge="1">
          <mxGeometry relative="1" as="geometry" />
        </mxCell>
        <mxCell id="7He2-vKcRPK2TsKGbKcH-122" style="edgeStyle=orthogonalEdgeStyle;rounded=0;orthogonalLoop=1;jettySize=auto;html=1;entryX=0.75;entryY=0.25;entryDx=0;entryDy=0;entryPerimeter=0;" parent="7He2-vKcRPK2TsKGbKcH-2" source="7He2-vKcRPK2TsKGbKcH-119" target="7He2-vKcRPK2TsKGbKcH-31" edge="1">
          <mxGeometry relative="1" as="geometry">
            <Array as="points">
              <mxPoint x="4175" y="30" />
              <mxPoint x="1190" y="30" />
              <mxPoint x="1190" y="433" />
            </Array>
          </mxGeometry>
        </mxCell>
        <mxCell id="7He2-vKcRPK2TsKGbKcH-126" value="Продолжить обслуживание" style="edgeLabel;html=1;align=center;verticalAlign=middle;resizable=0;points=[];" parent="7He2-vKcRPK2TsKGbKcH-122" connectable="0" vertex="1">
          <mxGeometry x="-0.5945" y="-3" relative="1" as="geometry">
            <mxPoint as="offset" />
          </mxGeometry>
        </mxCell>
        <mxCell id="7He2-vKcRPK2TsKGbKcH-124" style="edgeStyle=orthogonalEdgeStyle;rounded=0;orthogonalLoop=1;jettySize=auto;html=1;" parent="7He2-vKcRPK2TsKGbKcH-2" source="7He2-vKcRPK2TsKGbKcH-123" target="7He2-vKcRPK2TsKGbKcH-103" edge="1">
          <mxGeometry relative="1" as="geometry" />
        </mxCell>
        <mxCell id="7He2-vKcRPK2TsKGbKcH-123" value="" style="points=[[0.25,0.25,0],[0.5,0,0],[0.75,0.25,0],[1,0.5,0],[0.75,0.75,0],[0.5,1,0],[0.25,0.75,0],[0,0.5,0]];shape=mxgraph.bpmn.gateway2;html=1;verticalLabelPosition=bottom;labelBackgroundColor=#ffffff;verticalAlign=top;align=center;perimeter=rhombusPerimeter;outlineConnect=0;outline=none;symbol=none;gwType=exclusive;" parent="7He2-vKcRPK2TsKGbKcH-2" vertex="1">
          <mxGeometry x="4270" y="440" width="50" height="50" as="geometry" />
        </mxCell>
        <mxCell id="7He2-vKcRPK2TsKGbKcH-3" value="Специалист" style="swimlane;html=1;startSize=20;horizontal=0;" parent="7He2-vKcRPK2TsKGbKcH-1" vertex="1">
          <mxGeometry x="20" y="700" width="4740" height="190" as="geometry" />
        </mxCell>
        <mxCell id="7He2-vKcRPK2TsKGbKcH-22" style="edgeStyle=orthogonalEdgeStyle;rounded=0;orthogonalLoop=1;jettySize=auto;html=1;" parent="7He2-vKcRPK2TsKGbKcH-3" source="7He2-vKcRPK2TsKGbKcH-19" target="7He2-vKcRPK2TsKGbKcH-20" edge="1">
          <mxGeometry relative="1" as="geometry" />
        </mxCell>
        <mxCell id="7He2-vKcRPK2TsKGbKcH-19" value="Приветствовать клиента" style="points=[[0.25,0,0],[0.5,0,0],[0.75,0,0],[1,0.25,0],[1,0.5,0],[1,0.75,0],[0.75,1,0],[0.5,1,0],[0.25,1,0],[0,0.75,0],[0,0.5,0],[0,0.25,0]];shape=mxgraph.bpmn.task;whiteSpace=wrap;rectStyle=rounded;size=10;html=1;container=1;expand=0;collapsible=0;taskMarker=manual;" parent="7He2-vKcRPK2TsKGbKcH-3" vertex="1">
          <mxGeometry x="2840" y="70" width="120" height="80" as="geometry" />
        </mxCell>
        <mxCell id="7He2-vKcRPK2TsKGbKcH-20" value="Оказать услугу клиенту" style="points=[[0.25,0,0],[0.5,0,0],[0.75,0,0],[1,0.25,0],[1,0.5,0],[1,0.75,0],[0.75,1,0],[0.5,1,0],[0.25,1,0],[0,0.75,0],[0,0.5,0],[0,0.25,0]];shape=mxgraph.bpmn.task;whiteSpace=wrap;rectStyle=rounded;size=10;html=1;container=1;expand=0;collapsible=0;taskMarker=manual;" parent="7He2-vKcRPK2TsKGbKcH-3" vertex="1">
          <mxGeometry x="3095" y="70" width="120" height="80" as="geometry" />
        </mxCell>
        <mxCell id="7He2-vKcRPK2TsKGbKcH-46" value="Оказать доп.консультацию" style="points=[[0.25,0,0],[0.5,0,0],[0.75,0,0],[1,0.25,0],[1,0.5,0],[1,0.75,0],[0.75,1,0],[0.5,1,0],[0.25,1,0],[0,0.75,0],[0,0.5,0],[0,0.25,0]];shape=mxgraph.bpmn.task;whiteSpace=wrap;rectStyle=rounded;size=10;html=1;container=1;expand=0;collapsible=0;taskMarker=manual;" parent="7He2-vKcRPK2TsKGbKcH-3" vertex="1">
          <mxGeometry x="1236" y="50" width="120" height="80" as="geometry" />
        </mxCell>
        <mxCell id="7He2-vKcRPK2TsKGbKcH-21" style="edgeStyle=orthogonalEdgeStyle;rounded=0;orthogonalLoop=1;jettySize=auto;html=1;entryX=0.5;entryY=1;entryDx=0;entryDy=0;entryPerimeter=0;exitX=0.5;exitY=1;exitDx=0;exitDy=0;exitPerimeter=0;" parent="7He2-vKcRPK2TsKGbKcH-1" source="7He2-vKcRPK2TsKGbKcH-17" target="7He2-vKcRPK2TsKGbKcH-19" edge="1">
          <mxGeometry relative="1" as="geometry" />
        </mxCell>
        <mxCell id="7He2-vKcRPK2TsKGbKcH-47" style="edgeStyle=orthogonalEdgeStyle;rounded=0;orthogonalLoop=1;jettySize=auto;html=1;" parent="7He2-vKcRPK2TsKGbKcH-1" source="7He2-vKcRPK2TsKGbKcH-42" target="7He2-vKcRPK2TsKGbKcH-46" edge="1">
          <mxGeometry relative="1" as="geometry" />
        </mxCell>
        <mxCell id="7He2-vKcRPK2TsKGbKcH-48" style="edgeStyle=orthogonalEdgeStyle;rounded=0;orthogonalLoop=1;jettySize=auto;html=1;entryX=0.5;entryY=1;entryDx=0;entryDy=0;entryPerimeter=0;" parent="7He2-vKcRPK2TsKGbKcH-1" source="7He2-vKcRPK2TsKGbKcH-46" target="7He2-vKcRPK2TsKGbKcH-31" edge="1">
          <mxGeometry relative="1" as="geometry" />
        </mxCell>
        <mxCell id="7He2-vKcRPK2TsKGbKcH-98" style="edgeStyle=orthogonalEdgeStyle;rounded=0;orthogonalLoop=1;jettySize=auto;html=1;entryX=0.5;entryY=1;entryDx=0;entryDy=0;entryPerimeter=0;" parent="7He2-vKcRPK2TsKGbKcH-1" source="7He2-vKcRPK2TsKGbKcH-20" target="7He2-vKcRPK2TsKGbKcH-97" edge="1">
          <mxGeometry relative="1" as="geometry" />
        </mxCell>
        <mxCell id="7He2-vKcRPK2TsKGbKcH-5" value="Клиент" style="swimlane;startSize=20;horizontal=0;html=1;whiteSpace=wrap;" parent="1" vertex="1">
          <mxGeometry x="170" y="-20" width="4760" height="120" as="geometry" />
        </mxCell>
      </root>
    </mxGraphModel>
  </diagram>
</mxfile>
